<svg id="Gradient" height="512" viewBox="0 0 512 512" width="512" xmlns="http://www.w3.org/2000/svg" xmlns:xlink="http://www.w3.org/1999/xlink"><linearGradient id="linear-gradient" gradientUnits="userSpaceOnUse" x1="256" x2="256" y1="495.687" y2="15.687"><stop offset="0" stop-color="#27bfe4"/><stop offset=".5" stop-color="#c075e7"/><stop offset="1" stop-color="#f0515d"/></linearGradient><path d="m488 15.687c-126.5 0-220.187 42.916-286.4 131.2-28.923 38.564-41.168 75.806-46.211 97.318l-12.989-17.318a8 8 0 0 0 -13.891 1.99c-21.6 57.6-6.315 102.663-1.158 115.052l-61.122 66.215c-32.708 32.763-48.979 72.878-49.657 74.571a8 8 0 0 0 13.085 8.628c14.214-14.214 43.989-21.822 44.283-21.9a8.009 8.009 0 0 0 3.957-2.356l86.553-94.421c97.389-30.3 162.655-74.081 217.9-146.116a8 8 0 0 0 -3.82-12.45l-24.659-8.22c7.746-2.749 16.9-6.263 26.707-10.568 37.19-16.32 64.666-35.371 81.669-56.625 33.369-41.715 33.753-113.946 33.753-117a8 8 0 0 0 -8-8zm-349.146 233.138 14.746 19.661a8 8 0 0 0 14.365-4.05c.05-.528 5.509-53.381 46.435-107.95q28.983-38.644 65.6-65.168v20.369a8 8 0 1 0 16 0v-31.141c44.561-27.873 97.23-43.68 158.787-47.776-73.35 43.491-143.887 109.084-192.536 159.353a1519.837 1519.837 0 0 0 -100.365 114.392l-22.286 24.141c-4.6-14.544-10.892-44.641-.746-81.831zm-71.182 207.743a168.133 168.133 0 0 0 -23.192 8.489 230.239 230.239 0 0 1 25.5-35.531l7.932 15.874zm84.759-92.463-62.945 68.666-7.859-15.719 74.819-81.052zm299.608-236.418h-36.039a8 8 0 1 0 0 16h21.491c-40.814 37.422-110.733 56.056-111.511 56.259a8 8 0 0 0 -.51 15.33l37.213 12.4a399.3 399.3 0 0 1 -32.765 36.007h-65.918a8 8 0 0 0 0 16h48.306c-39.041 33.166-84.8 57.486-142.582 76.5l5.894-41.259c7.275-9.285 45.093-56.882 98.267-111.814 51.56-53.265 127.984-123.954 205.45-165.87-1.645 21.322-7.373 63.078-27.296 90.447z" fill="url(#linear-gradient)"/></svg>